<svg width="58" height="44" viewBox="0 0 58 44" fill="none" xmlns="http://www.w3.org/2000/svg">
<path d="M16.0192 43.6798C11.1392 43.6798 7.23922 42.2998 4.31922 39.5398C1.43922 36.7398 -0.000781044 32.5398 -0.000781044 26.9398V16.7398C-0.000781044 11.2598 1.43922 7.09984 4.31922 4.25984C7.23922 1.41984 11.1392 -0.000159025 16.0192 -0.000159025C20.9392 -0.000159025 24.8392 1.41984 27.7192 4.25984C30.6392 7.09984 32.0992 11.2598 32.0992 16.7398V26.9398C32.0992 32.5398 30.6392 36.7398 27.7192 39.5398C24.8392 42.2998 20.9392 43.6798 16.0192 43.6798ZM16.0192 38.0398C19.3392 38.0398 21.7992 37.0998 23.3992 35.2198C24.9992 33.2998 25.7992 30.6198 25.7992 27.1798V16.3798C25.7992 12.9398 24.9392 10.2998 23.2192 8.45984C21.4992 6.57984 19.0992 5.63984 16.0192 5.63984C12.8992 5.63984 10.4992 6.59984 8.81922 8.51984C7.13922 10.3998 6.29922 13.0198 6.29922 16.3798V27.1798C6.29922 30.6998 7.09922 33.3998 8.69922 35.2798C10.3392 37.1198 12.7792 38.0398 16.0192 38.0398ZM50.7911 42.8398V5.27984H49.8311L42.9311 19.4398H36.2711L45.5711 0.839841H57.0911V42.8398H50.7911Z" fill="black"/>
</svg>
